solid OpenSCAD_Model
  facet normal 1 0 0
    outer loop
      vertex 110 9.5 5.9
      vertex 110 6 5.9
      vertex 110 9.5 2.4
    endloop
  endfacet
  facet normal 1 0 0
    outer loop
      vertex 110 16.5 5.9
      vertex 110 13 5.9
      vertex 110 16.5 2.4
    endloop
  endfacet
  facet normal 1 0 0
    outer loop
      vertex 110 23.5 5.9
      vertex 110 20 5.9
      vertex 110 23.5 2.4
    endloop
  endfacet
  facet normal 1 0 0
    outer loop
      vertex 110 30.5 5.9
      vertex 110 27 5.9
      vertex 110 30.5 2.4
    endloop
  endfacet
  facet normal 1 0 0
    outer loop
      vertex 110 37.5 5.9
      vertex 110 34 5.9
      vertex 110 37.5 2.4
    endloop
  endfacet
  facet normal 1 0 0
    outer loop
      vertex 110 44.5 5.9
      vertex 110 41 5.9
      vertex 110 44.5 2.4
    endloop
  endfacet
  facet normal 1 -0 0
    outer loop
      vertex 110 44.5 2.4
      vertex 110 50 0
      vertex 110 50 2.4
    endloop
  endfacet
  facet normal 1 0 0
    outer loop
      vertex 110 41 2.4
      vertex 110 44.5 2.4
      vertex 110 41 5.9
    endloop
  endfacet
  facet normal 1 -0 0
    outer loop
      vertex 110 41 2.4
      vertex 110 50 0
      vertex 110 44.5 2.4
    endloop
  endfacet
  facet normal 1 -0 0
    outer loop
      vertex 110 37.5 2.4
      vertex 110 50 0
      vertex 110 41 2.4
    endloop
  endfacet
  facet normal 1 0 0
    outer loop
      vertex 110 34 2.4
      vertex 110 37.5 2.4
      vertex 110 34 5.9
    endloop
  endfacet
  facet normal 1 -0 0
    outer loop
      vertex 110 34 2.4
      vertex 110 50 0
      vertex 110 37.5 2.4
    endloop
  endfacet
  facet normal 1 -0 0
    outer loop
      vertex 110 30.5 2.4
      vertex 110 50 0
      vertex 110 34 2.4
    endloop
  endfacet
  facet normal 1 0 0
    outer loop
      vertex 110 27 2.4
      vertex 110 30.5 2.4
      vertex 110 27 5.9
    endloop
  endfacet
  facet normal 1 -0 0
    outer loop
      vertex 110 27 2.4
      vertex 110 50 0
      vertex 110 30.5 2.4
    endloop
  endfacet
  facet normal 1 -0 0
    outer loop
      vertex 110 23.5 2.4
      vertex 110 50 0
      vertex 110 27 2.4
    endloop
  endfacet
  facet normal 1 0 0
    outer loop
      vertex 110 20 2.4
      vertex 110 23.5 2.4
      vertex 110 20 5.9
    endloop
  endfacet
  facet normal 1 0 0
    outer loop
      vertex 110 0 0
      vertex 110 23.5 2.4
      vertex 110 20 2.4
    endloop
  endfacet
  facet normal 1 0 0
    outer loop
      vertex 110 0 0
      vertex 110 20 2.4
      vertex 110 16.5 2.4
    endloop
  endfacet
  facet normal 1 0 0
    outer loop
      vertex 110 13 2.4
      vertex 110 16.5 2.4
      vertex 110 13 5.9
    endloop
  endfacet
  facet normal 1 0 0
    outer loop
      vertex 110 0 0
      vertex 110 16.5 2.4
      vertex 110 13 2.4
    endloop
  endfacet
  facet normal 1 0 0
    outer loop
      vertex 110 0 0
      vertex 110 13 2.4
      vertex 110 9.5 2.4
    endloop
  endfacet
  facet normal 1 0 0
    outer loop
      vertex 110 6 2.4
      vertex 110 9.5 2.4
      vertex 110 6 5.9
    endloop
  endfacet
  facet normal 1 0 0
    outer loop
      vertex 110 0 0
      vertex 110 9.5 2.4
      vertex 110 6 2.4
    endloop
  endfacet
  facet normal 1 0 0
    outer loop
      vertex 110 0 0
      vertex 110 6 2.4
      vertex 110 0 2.4
    endloop
  endfacet
  facet normal 1 0 0
    outer loop
      vertex 110 23.5 2.4
      vertex 110 0 0
      vertex 110 50 0
    endloop
  endfacet
  facet normal -0 0 1
    outer loop
      vertex 60 9.5 5.9
      vertex 110 6 5.9
      vertex 110 9.5 5.9
    endloop
  endfacet
  facet normal 0 0 1
    outer loop
      vertex 110 6 5.9
      vertex 60 9.5 5.9
      vertex 60 6 5.9
    endloop
  endfacet
  facet normal 0 0 -1
    outer loop
      vertex 60 0 0
      vertex 110 50 0
      vertex 110 0 0
    endloop
  endfacet
  facet normal -0 0 -1
    outer loop
      vertex 110 50 0
      vertex 60 0 0
      vertex 60 50 0
    endloop
  endfacet
  facet normal -1 0 0
    outer loop
      vertex 60 50 0
      vertex 60 44.5 2.4
      vertex 60 50 2.4
    endloop
  endfacet
  facet normal -1 0 0
    outer loop
      vertex 60 44.5 2.4
      vertex 60 41 2.4
      vertex 60 44.5 5.9
    endloop
  endfacet
  facet normal -1 0 0
    outer loop
      vertex 60 50 0
      vertex 60 41 2.4
      vertex 60 44.5 2.4
    endloop
  endfacet
  facet normal -1 0 0
    outer loop
      vertex 60 50 0
      vertex 60 37.5 2.4
      vertex 60 41 2.4
    endloop
  endfacet
  facet normal -1 0 0
    outer loop
      vertex 60 37.5 2.4
      vertex 60 34 2.4
      vertex 60 37.5 5.9
    endloop
  endfacet
  facet normal -1 0 0
    outer loop
      vertex 60 50 0
      vertex 60 34 2.4
      vertex 60 37.5 2.4
    endloop
  endfacet
  facet normal -1 0 0
    outer loop
      vertex 60 50 0
      vertex 60 30.5 2.4
      vertex 60 34 2.4
    endloop
  endfacet
  facet normal -1 0 0
    outer loop
      vertex 60 30.5 2.4
      vertex 60 27 2.4
      vertex 60 30.5 5.9
    endloop
  endfacet
  facet normal -1 0 0
    outer loop
      vertex 60 50 0
      vertex 60 27 2.4
      vertex 60 30.5 2.4
    endloop
  endfacet
  facet normal -1 0 0
    outer loop
      vertex 60 50 0
      vertex 60 23.5 2.4
      vertex 60 27 2.4
    endloop
  endfacet
  facet normal -1 0 0
    outer loop
      vertex 60 23.5 2.4
      vertex 60 20 2.4
      vertex 60 23.5 5.9
    endloop
  endfacet
  facet normal -1 0 0
    outer loop
      vertex 60 0 0
      vertex 60 23.5 2.4
      vertex 60 50 0
    endloop
  endfacet
  facet normal -1 -0 0
    outer loop
      vertex 60 23.5 2.4
      vertex 60 0 0
      vertex 60 20 2.4
    endloop
  endfacet
  facet normal -1 0 0
    outer loop
      vertex 60 16.5 2.4
      vertex 60 13 2.4
      vertex 60 16.5 5.9
    endloop
  endfacet
  facet normal -1 -0 0
    outer loop
      vertex 60 20 2.4
      vertex 60 0 0
      vertex 60 16.5 2.4
    endloop
  endfacet
  facet normal -1 -0 0
    outer loop
      vertex 60 16.5 2.4
      vertex 60 0 0
      vertex 60 13 2.4
    endloop
  endfacet
  facet normal -1 0 0
    outer loop
      vertex 60 9.5 2.4
      vertex 60 6 2.4
      vertex 60 9.5 5.9
    endloop
  endfacet
  facet normal -1 -0 0
    outer loop
      vertex 60 13 2.4
      vertex 60 0 0
      vertex 60 9.5 2.4
    endloop
  endfacet
  facet normal -1 -0 0
    outer loop
      vertex 60 9.5 2.4
      vertex 60 0 0
      vertex 60 6 2.4
    endloop
  endfacet
  facet normal -1 -0 0
    outer loop
      vertex 60 6 2.4
      vertex 60 0 0
      vertex 60 0 2.4
    endloop
  endfacet
  facet normal -1 -0 0
    outer loop
      vertex 60 44.5 5.9
      vertex 60 41 2.4
      vertex 60 41 5.9
    endloop
  endfacet
  facet normal -1 -0 0
    outer loop
      vertex 60 37.5 5.9
      vertex 60 34 2.4
      vertex 60 34 5.9
    endloop
  endfacet
  facet normal -1 -0 0
    outer loop
      vertex 60 30.5 5.9
      vertex 60 27 2.4
      vertex 60 27 5.9
    endloop
  endfacet
  facet normal -1 -0 0
    outer loop
      vertex 60 23.5 5.9
      vertex 60 20 2.4
      vertex 60 20 5.9
    endloop
  endfacet
  facet normal -1 -0 0
    outer loop
      vertex 60 16.5 5.9
      vertex 60 13 2.4
      vertex 60 13 5.9
    endloop
  endfacet
  facet normal -1 -0 0
    outer loop
      vertex 60 9.5 5.9
      vertex 60 6 2.4
      vertex 60 6 5.9
    endloop
  endfacet
  facet normal 0 1 -0
    outer loop
      vertex 110 9.5 2.4
      vertex 60 9.5 5.9
      vertex 110 9.5 5.9
    endloop
  endfacet
  facet normal 0 1 0
    outer loop
      vertex 60 9.5 5.9
      vertex 110 9.5 2.4
      vertex 60 9.5 2.4
    endloop
  endfacet
  facet normal 0 -1 0
    outer loop
      vertex 60 6 2.4
      vertex 110 6 5.9
      vertex 60 6 5.9
    endloop
  endfacet
  facet normal 0 -1 -0
    outer loop
      vertex 110 6 5.9
      vertex 60 6 2.4
      vertex 110 6 2.4
    endloop
  endfacet
  facet normal -0 0 1
    outer loop
      vertex 60 16.5 5.9
      vertex 110 13 5.9
      vertex 110 16.5 5.9
    endloop
  endfacet
  facet normal 0 0 1
    outer loop
      vertex 110 13 5.9
      vertex 60 16.5 5.9
      vertex 60 13 5.9
    endloop
  endfacet
  facet normal 0 1 -0
    outer loop
      vertex 110 16.5 2.4
      vertex 60 16.5 5.9
      vertex 110 16.5 5.9
    endloop
  endfacet
  facet normal 0 1 0
    outer loop
      vertex 60 16.5 5.9
      vertex 110 16.5 2.4
      vertex 60 16.5 2.4
    endloop
  endfacet
  facet normal 0 -1 0
    outer loop
      vertex 60 13 2.4
      vertex 110 13 5.9
      vertex 60 13 5.9
    endloop
  endfacet
  facet normal 0 -1 -0
    outer loop
      vertex 110 13 5.9
      vertex 60 13 2.4
      vertex 110 13 2.4
    endloop
  endfacet
  facet normal -0 0 1
    outer loop
      vertex 60 23.5 5.9
      vertex 110 20 5.9
      vertex 110 23.5 5.9
    endloop
  endfacet
  facet normal 0 0 1
    outer loop
      vertex 110 20 5.9
      vertex 60 23.5 5.9
      vertex 60 20 5.9
    endloop
  endfacet
  facet normal 0 1 -0
    outer loop
      vertex 110 23.5 2.4
      vertex 60 23.5 5.9
      vertex 110 23.5 5.9
    endloop
  endfacet
  facet normal 0 1 0
    outer loop
      vertex 60 23.5 5.9
      vertex 110 23.5 2.4
      vertex 60 23.5 2.4
    endloop
  endfacet
  facet normal 0 -1 0
    outer loop
      vertex 60 20 2.4
      vertex 110 20 5.9
      vertex 60 20 5.9
    endloop
  endfacet
  facet normal 0 -1 -0
    outer loop
      vertex 110 20 5.9
      vertex 60 20 2.4
      vertex 110 20 2.4
    endloop
  endfacet
  facet normal -0 0 1
    outer loop
      vertex 60 30.5 5.9
      vertex 110 27 5.9
      vertex 110 30.5 5.9
    endloop
  endfacet
  facet normal 0 0 1
    outer loop
      vertex 110 27 5.9
      vertex 60 30.5 5.9
      vertex 60 27 5.9
    endloop
  endfacet
  facet normal 0 1 -0
    outer loop
      vertex 110 30.5 2.4
      vertex 60 30.5 5.9
      vertex 110 30.5 5.9
    endloop
  endfacet
  facet normal 0 1 0
    outer loop
      vertex 60 30.5 5.9
      vertex 110 30.5 2.4
      vertex 60 30.5 2.4
    endloop
  endfacet
  facet normal 0 -1 0
    outer loop
      vertex 60 27 2.4
      vertex 110 27 5.9
      vertex 60 27 5.9
    endloop
  endfacet
  facet normal 0 -1 -0
    outer loop
      vertex 110 27 5.9
      vertex 60 27 2.4
      vertex 110 27 2.4
    endloop
  endfacet
  facet normal -0 0 1
    outer loop
      vertex 60 37.5 5.9
      vertex 110 34 5.9
      vertex 110 37.5 5.9
    endloop
  endfacet
  facet normal 0 0 1
    outer loop
      vertex 110 34 5.9
      vertex 60 37.5 5.9
      vertex 60 34 5.9
    endloop
  endfacet
  facet normal 0 1 -0
    outer loop
      vertex 110 37.5 2.4
      vertex 60 37.5 5.9
      vertex 110 37.5 5.9
    endloop
  endfacet
  facet normal 0 1 0
    outer loop
      vertex 60 37.5 5.9
      vertex 110 37.5 2.4
      vertex 60 37.5 2.4
    endloop
  endfacet
  facet normal 0 -1 0
    outer loop
      vertex 60 34 2.4
      vertex 110 34 5.9
      vertex 60 34 5.9
    endloop
  endfacet
  facet normal 0 -1 -0
    outer loop
      vertex 110 34 5.9
      vertex 60 34 2.4
      vertex 110 34 2.4
    endloop
  endfacet
  facet normal -0 0 1
    outer loop
      vertex 60 44.5 5.9
      vertex 110 41 5.9
      vertex 110 44.5 5.9
    endloop
  endfacet
  facet normal 0 0 1
    outer loop
      vertex 110 41 5.9
      vertex 60 44.5 5.9
      vertex 60 41 5.9
    endloop
  endfacet
  facet normal 0 1 -0
    outer loop
      vertex 110 44.5 2.4
      vertex 60 44.5 5.9
      vertex 110 44.5 5.9
    endloop
  endfacet
  facet normal 0 1 0
    outer loop
      vertex 60 44.5 5.9
      vertex 110 44.5 2.4
      vertex 60 44.5 2.4
    endloop
  endfacet
  facet normal 0 -1 0
    outer loop
      vertex 60 41 2.4
      vertex 110 41 5.9
      vertex 60 41 5.9
    endloop
  endfacet
  facet normal 0 -1 -0
    outer loop
      vertex 110 41 5.9
      vertex 60 41 2.4
      vertex 110 41 2.4
    endloop
  endfacet
  facet normal -0 0 1
    outer loop
      vertex 60 50 2.4
      vertex 110 44.5 2.4
      vertex 110 50 2.4
    endloop
  endfacet
  facet normal 0 0 1
    outer loop
      vertex 110 44.5 2.4
      vertex 60 50 2.4
      vertex 60 44.5 2.4
    endloop
  endfacet
  facet normal -0 0 1
    outer loop
      vertex 60 6 2.4
      vertex 110 0 2.4
      vertex 110 6 2.4
    endloop
  endfacet
  facet normal 0 0 1
    outer loop
      vertex 110 0 2.4
      vertex 60 6 2.4
      vertex 60 0 2.4
    endloop
  endfacet
  facet normal -0 0 1
    outer loop
      vertex 60 41 2.4
      vertex 110 37.5 2.4
      vertex 110 41 2.4
    endloop
  endfacet
  facet normal 0 0 1
    outer loop
      vertex 110 37.5 2.4
      vertex 60 41 2.4
      vertex 60 37.5 2.4
    endloop
  endfacet
  facet normal -0 0 1
    outer loop
      vertex 60 34 2.4
      vertex 110 30.5 2.4
      vertex 110 34 2.4
    endloop
  endfacet
  facet normal 0 0 1
    outer loop
      vertex 110 30.5 2.4
      vertex 60 34 2.4
      vertex 60 30.5 2.4
    endloop
  endfacet
  facet normal -0 0 1
    outer loop
      vertex 60 27 2.4
      vertex 110 23.5 2.4
      vertex 110 27 2.4
    endloop
  endfacet
  facet normal 0 0 1
    outer loop
      vertex 110 23.5 2.4
      vertex 60 27 2.4
      vertex 60 23.5 2.4
    endloop
  endfacet
  facet normal -0 0 1
    outer loop
      vertex 60 20 2.4
      vertex 110 16.5 2.4
      vertex 110 20 2.4
    endloop
  endfacet
  facet normal 0 0 1
    outer loop
      vertex 110 16.5 2.4
      vertex 60 20 2.4
      vertex 60 16.5 2.4
    endloop
  endfacet
  facet normal -0 0 1
    outer loop
      vertex 60 13 2.4
      vertex 110 9.5 2.4
      vertex 110 13 2.4
    endloop
  endfacet
  facet normal 0 0 1
    outer loop
      vertex 110 9.5 2.4
      vertex 60 13 2.4
      vertex 60 9.5 2.4
    endloop
  endfacet
  facet normal 0 1 -0
    outer loop
      vertex 110 50 0
      vertex 60 50 2.4
      vertex 110 50 2.4
    endloop
  endfacet
  facet normal 0 1 0
    outer loop
      vertex 60 50 2.4
      vertex 110 50 0
      vertex 60 50 0
    endloop
  endfacet
  facet normal 0 -1 0
    outer loop
      vertex 60 0 0
      vertex 110 0 2.4
      vertex 60 0 2.4
    endloop
  endfacet
  facet normal 0 -1 -0
    outer loop
      vertex 110 0 2.4
      vertex 60 0 0
      vertex 110 0 0
    endloop
  endfacet
  facet normal 1 -0 0
    outer loop
      vertex 45 3.5 5.9
      vertex 45 7 2.4
      vertex 45 7 5.9
    endloop
  endfacet
  facet normal 1 0 0
    outer loop
      vertex 45 7 2.4
      vertex 45 3.5 5.9
      vertex 45 3.5 2.4
    endloop
  endfacet
  facet normal -0 0 1
    outer loop
      vertex 5.1 7 5.9
      vertex 45 3.5 5.9
      vertex 45 7 5.9
    endloop
  endfacet
  facet normal 0 0 1
    outer loop
      vertex 45 3.5 5.9
      vertex 5.1 7 5.9
      vertex 5.1 3.5 5.9
    endloop
  endfacet
  facet normal 0 0 -1
    outer loop
      vertex 0 0 0
      vertex 50 50 0
      vertex 50 0 0
    endloop
  endfacet
  facet normal -0 0 -1
    outer loop
      vertex 50 50 0
      vertex 0 0 0
      vertex 0 50 0
    endloop
  endfacet
  facet normal -1 0 0
    outer loop
      vertex 5.1 3.5 2.4
      vertex 5.1 7 5.9
      vertex 5.1 7 2.4
    endloop
  endfacet
  facet normal -1 -0 0
    outer loop
      vertex 5.1 7 5.9
      vertex 5.1 3.5 2.4
      vertex 5.1 3.5 5.9
    endloop
  endfacet
  facet normal 0 1 -0
    outer loop
      vertex 45 7 2.4
      vertex 5.1 7 5.9
      vertex 45 7 5.9
    endloop
  endfacet
  facet normal 0 1 0
    outer loop
      vertex 5.1 7 5.9
      vertex 45 7 2.4
      vertex 5.1 7 2.4
    endloop
  endfacet
  facet normal 0 -1 0
    outer loop
      vertex 5.1 3.5 2.4
      vertex 45 3.5 5.9
      vertex 5.1 3.5 5.9
    endloop
  endfacet
  facet normal 0 -1 -0
    outer loop
      vertex 45 3.5 5.9
      vertex 5.1 3.5 2.4
      vertex 45 3.5 2.4
    endloop
  endfacet
  facet normal 1 -0 0
    outer loop
      vertex 45 10.5 5.9
      vertex 45 14 2.4
      vertex 45 14 5.9
    endloop
  endfacet
  facet normal 1 0 0
    outer loop
      vertex 45 14 2.4
      vertex 45 10.5 5.9
      vertex 45 10.5 2.4
    endloop
  endfacet
  facet normal -0 0 1
    outer loop
      vertex 5.1 14 5.9
      vertex 45 10.5 5.9
      vertex 45 14 5.9
    endloop
  endfacet
  facet normal 0 0 1
    outer loop
      vertex 45 10.5 5.9
      vertex 5.1 14 5.9
      vertex 5.1 10.5 5.9
    endloop
  endfacet
  facet normal -1 0 0
    outer loop
      vertex 5.1 10.5 2.4
      vertex 5.1 14 5.9
      vertex 5.1 14 2.4
    endloop
  endfacet
  facet normal -1 -0 0
    outer loop
      vertex 5.1 14 5.9
      vertex 5.1 10.5 2.4
      vertex 5.1 10.5 5.9
    endloop
  endfacet
  facet normal 0 1 -0
    outer loop
      vertex 45 14 2.4
      vertex 5.1 14 5.9
      vertex 45 14 5.9
    endloop
  endfacet
  facet normal 0 1 0
    outer loop
      vertex 5.1 14 5.9
      vertex 45 14 2.4
      vertex 5.1 14 2.4
    endloop
  endfacet
  facet normal 0 -1 0
    outer loop
      vertex 5.1 10.5 2.4
      vertex 45 10.5 5.9
      vertex 5.1 10.5 5.9
    endloop
  endfacet
  facet normal 0 -1 -0
    outer loop
      vertex 45 10.5 5.9
      vertex 5.1 10.5 2.4
      vertex 45 10.5 2.4
    endloop
  endfacet
  facet normal 1 -0 0
    outer loop
      vertex 45 17.5 5.9
      vertex 45 21 2.4
      vertex 45 21 5.9
    endloop
  endfacet
  facet normal 1 0 0
    outer loop
      vertex 45 21 2.4
      vertex 45 17.5 5.9
      vertex 45 17.5 2.4
    endloop
  endfacet
  facet normal -0 0 1
    outer loop
      vertex 5.1 21 5.9
      vertex 45 17.5 5.9
      vertex 45 21 5.9
    endloop
  endfacet
  facet normal 0 0 1
    outer loop
      vertex 45 17.5 5.9
      vertex 5.1 21 5.9
      vertex 5.1 17.5 5.9
    endloop
  endfacet
  facet normal -1 0 0
    outer loop
      vertex 5.1 17.5 2.4
      vertex 5.1 21 5.9
      vertex 5.1 21 2.4
    endloop
  endfacet
  facet normal -1 -0 0
    outer loop
      vertex 5.1 21 5.9
      vertex 5.1 17.5 2.4
      vertex 5.1 17.5 5.9
    endloop
  endfacet
  facet normal 0 1 -0
    outer loop
      vertex 45 21 2.4
      vertex 5.1 21 5.9
      vertex 45 21 5.9
    endloop
  endfacet
  facet normal 0 1 0
    outer loop
      vertex 5.1 21 5.9
      vertex 45 21 2.4
      vertex 5.1 21 2.4
    endloop
  endfacet
  facet normal 0 -1 0
    outer loop
      vertex 5.1 17.5 2.4
      vertex 45 17.5 5.9
      vertex 5.1 17.5 5.9
    endloop
  endfacet
  facet normal 0 -1 -0
    outer loop
      vertex 45 17.5 5.9
      vertex 5.1 17.5 2.4
      vertex 45 17.5 2.4
    endloop
  endfacet
  facet normal 1 -0 0
    outer loop
      vertex 45 24.5 5.9
      vertex 45 28 2.4
      vertex 45 28 5.9
    endloop
  endfacet
  facet normal 1 0 0
    outer loop
      vertex 45 28 2.4
      vertex 45 24.5 5.9
      vertex 45 24.5 2.4
    endloop
  endfacet
  facet normal -0 0 1
    outer loop
      vertex 5.1 28 5.9
      vertex 45 24.5 5.9
      vertex 45 28 5.9
    endloop
  endfacet
  facet normal 0 0 1
    outer loop
      vertex 45 24.5 5.9
      vertex 5.1 28 5.9
      vertex 5.1 24.5 5.9
    endloop
  endfacet
  facet normal -1 0 0
    outer loop
      vertex 5.1 24.5 2.4
      vertex 5.1 28 5.9
      vertex 5.1 28 2.4
    endloop
  endfacet
  facet normal -1 -0 0
    outer loop
      vertex 5.1 28 5.9
      vertex 5.1 24.5 2.4
      vertex 5.1 24.5 5.9
    endloop
  endfacet
  facet normal 0 1 -0
    outer loop
      vertex 45 28 2.4
      vertex 5.1 28 5.9
      vertex 45 28 5.9
    endloop
  endfacet
  facet normal 0 1 0
    outer loop
      vertex 5.1 28 5.9
      vertex 45 28 2.4
      vertex 5.1 28 2.4
    endloop
  endfacet
  facet normal 0 -1 0
    outer loop
      vertex 5.1 24.5 2.4
      vertex 45 24.5 5.9
      vertex 5.1 24.5 5.9
    endloop
  endfacet
  facet normal 0 -1 -0
    outer loop
      vertex 45 24.5 5.9
      vertex 5.1 24.5 2.4
      vertex 45 24.5 2.4
    endloop
  endfacet
  facet normal 1 -0 0
    outer loop
      vertex 45 31.5 5.9
      vertex 45 35 2.4
      vertex 45 35 5.9
    endloop
  endfacet
  facet normal 1 0 0
    outer loop
      vertex 45 35 2.4
      vertex 45 31.5 5.9
      vertex 45 31.5 2.4
    endloop
  endfacet
  facet normal -0 0 1
    outer loop
      vertex 5.1 35 5.9
      vertex 45 31.5 5.9
      vertex 45 35 5.9
    endloop
  endfacet
  facet normal 0 0 1
    outer loop
      vertex 45 31.5 5.9
      vertex 5.1 35 5.9
      vertex 5.1 31.5 5.9
    endloop
  endfacet
  facet normal -1 0 0
    outer loop
      vertex 5.1 31.5 2.4
      vertex 5.1 35 5.9
      vertex 5.1 35 2.4
    endloop
  endfacet
  facet normal -1 -0 0
    outer loop
      vertex 5.1 35 5.9
      vertex 5.1 31.5 2.4
      vertex 5.1 31.5 5.9
    endloop
  endfacet
  facet normal 0 1 -0
    outer loop
      vertex 45 35 2.4
      vertex 5.1 35 5.9
      vertex 45 35 5.9
    endloop
  endfacet
  facet normal 0 1 0
    outer loop
      vertex 5.1 35 5.9
      vertex 45 35 2.4
      vertex 5.1 35 2.4
    endloop
  endfacet
  facet normal 0 -1 0
    outer loop
      vertex 5.1 31.5 2.4
      vertex 45 31.5 5.9
      vertex 5.1 31.5 5.9
    endloop
  endfacet
  facet normal 0 -1 -0
    outer loop
      vertex 45 31.5 5.9
      vertex 5.1 31.5 2.4
      vertex 45 31.5 2.4
    endloop
  endfacet
  facet normal 1 -0 0
    outer loop
      vertex 45 38.5 5.9
      vertex 45 42 2.4
      vertex 45 42 5.9
    endloop
  endfacet
  facet normal 1 0 0
    outer loop
      vertex 45 42 2.4
      vertex 45 38.5 5.9
      vertex 45 38.5 2.4
    endloop
  endfacet
  facet normal -0 0 1
    outer loop
      vertex 5.1 42 5.9
      vertex 45 38.5 5.9
      vertex 45 42 5.9
    endloop
  endfacet
  facet normal 0 0 1
    outer loop
      vertex 45 38.5 5.9
      vertex 5.1 42 5.9
      vertex 5.1 38.5 5.9
    endloop
  endfacet
  facet normal -1 0 0
    outer loop
      vertex 5.1 38.5 2.4
      vertex 5.1 42 5.9
      vertex 5.1 42 2.4
    endloop
  endfacet
  facet normal -1 -0 0
    outer loop
      vertex 5.1 42 5.9
      vertex 5.1 38.5 2.4
      vertex 5.1 38.5 5.9
    endloop
  endfacet
  facet normal 0 1 -0
    outer loop
      vertex 45 42 2.4
      vertex 5.1 42 5.9
      vertex 45 42 5.9
    endloop
  endfacet
  facet normal 0 1 0
    outer loop
      vertex 5.1 42 5.9
      vertex 45 42 2.4
      vertex 5.1 42 2.4
    endloop
  endfacet
  facet normal 0 -1 0
    outer loop
      vertex 5.1 38.5 2.4
      vertex 45 38.5 5.9
      vertex 5.1 38.5 5.9
    endloop
  endfacet
  facet normal 0 -1 -0
    outer loop
      vertex 45 38.5 5.9
      vertex 5.1 38.5 2.4
      vertex 45 38.5 2.4
    endloop
  endfacet
  facet normal 1 -0 0
    outer loop
      vertex 45 45.5 5.9
      vertex 45 49 2.4
      vertex 45 49 5.9
    endloop
  endfacet
  facet normal 1 0 0
    outer loop
      vertex 45 49 2.4
      vertex 45 45.5 5.9
      vertex 45 45.5 2.4
    endloop
  endfacet
  facet normal -0 0 1
    outer loop
      vertex 5.1 49 5.9
      vertex 45 45.5 5.9
      vertex 45 49 5.9
    endloop
  endfacet
  facet normal 0 0 1
    outer loop
      vertex 45 45.5 5.9
      vertex 5.1 49 5.9
      vertex 5.1 45.5 5.9
    endloop
  endfacet
  facet normal -1 0 0
    outer loop
      vertex 5.1 45.5 2.4
      vertex 5.1 49 5.9
      vertex 5.1 49 2.4
    endloop
  endfacet
  facet normal -1 -0 0
    outer loop
      vertex 5.1 49 5.9
      vertex 5.1 45.5 2.4
      vertex 5.1 45.5 5.9
    endloop
  endfacet
  facet normal 0 1 -0
    outer loop
      vertex 45 49 2.4
      vertex 5.1 49 5.9
      vertex 45 49 5.9
    endloop
  endfacet
  facet normal 0 1 0
    outer loop
      vertex 5.1 49 5.9
      vertex 45 49 2.4
      vertex 5.1 49 2.4
    endloop
  endfacet
  facet normal 0 -1 0
    outer loop
      vertex 5.1 45.5 2.4
      vertex 45 45.5 5.9
      vertex 5.1 45.5 5.9
    endloop
  endfacet
  facet normal 0 -1 -0
    outer loop
      vertex 45 45.5 5.9
      vertex 5.1 45.5 2.4
      vertex 45 45.5 2.4
    endloop
  endfacet
  facet normal 0 0 1
    outer loop
      vertex -54.9 48.2335 5.9
      vertex -48.1838 50 5.9
      vertex -53.1335 50 5.9
    endloop
  endfacet
  facet normal 0 0 1
    outer loop
      vertex -48.1838 50 5.9
      vertex -54.9 48.2335 5.9
      vertex -54.9 43.2838 5.9
    endloop
  endfacet
  facet normal 0 0 1
    outer loop
      vertex -54.9 38.334 5.9
      vertex -38.2843 50 5.9
      vertex -43.234 50 5.9
    endloop
  endfacet
  facet normal 0 0 1
    outer loop
      vertex -38.2843 50 5.9
      vertex -54.9 38.334 5.9
      vertex -54.9 33.3843 5.9
    endloop
  endfacet
  facet normal 0 0 1
    outer loop
      vertex -54.9 28.4345 5.9
      vertex -28.3848 50 5.9
      vertex -33.3345 50 5.9
    endloop
  endfacet
  facet normal 0 0 1
    outer loop
      vertex -28.3848 50 5.9
      vertex -54.9 28.4345 5.9
      vertex -54.9 23.4848 5.9
    endloop
  endfacet
  facet normal 0 0 1
    outer loop
      vertex -54.9 18.535 5.9
      vertex -18.4853 50 5.9
      vertex -23.435 50 5.9
    endloop
  endfacet
  facet normal 0 0 1
    outer loop
      vertex -18.4853 50 5.9
      vertex -54.9 18.535 5.9
      vertex -54.9 13.5853 5.9
    endloop
  endfacet
  facet normal 0 0 1
    outer loop
      vertex -15.1 38.536 5.9
      vertex -48.6863 0 5.9
      vertex -15.1 33.5863 5.9
    endloop
  endfacet
  facet normal 0 -0 1
    outer loop
      vertex -48.6863 0 5.9
      vertex -15.1 38.536 5.9
      vertex -53.636 0 5.9
    endloop
  endfacet
  facet normal 0 0 1
    outer loop
      vertex -15.1 28.6365 5.9
      vertex -38.7868 0 5.9
      vertex -15.1 23.6868 5.9
    endloop
  endfacet
  facet normal 0 -0 1
    outer loop
      vertex -38.7868 0 5.9
      vertex -15.1 28.6365 5.9
      vertex -43.7365 0 5.9
    endloop
  endfacet
  facet normal 0 0 1
    outer loop
      vertex -15.1 18.737 5.9
      vertex -28.8873 0 5.9
      vertex -15.1 13.7873 5.9
    endloop
  endfacet
  facet normal 0 -0 1
    outer loop
      vertex -28.8873 0 5.9
      vertex -15.1 18.737 5.9
      vertex -33.837 0 5.9
    endloop
  endfacet
  facet normal 0 0 1
    outer loop
      vertex -15.1 8.83755 5.9
      vertex -18.9878 0 5.9
      vertex -15.1 3.88781 5.9
    endloop
  endfacet
  facet normal 0 -0 1
    outer loop
      vertex -18.9878 0 5.9
      vertex -15.1 8.83755 5.9
      vertex -23.9376 0 5.9
    endloop
  endfacet
  facet normal 0 0 1
    outer loop
      vertex -54.9 8.63553 5.9
      vertex -15.1 43.4858 5.9
      vertex -15.1 48.4355 5.9
    endloop
  endfacet
  facet normal 0 0 1
    outer loop
      vertex -15.1 43.4858 5.9
      vertex -54.9 8.63553 5.9
      vertex -54.9 3.68579 5.9
    endloop
  endfacet
  facet normal 0 0 -1
    outer loop
      vertex -60 0 0
      vertex -10 50 0
      vertex -10 0 0
    endloop
  endfacet
  facet normal -0 0 -1
    outer loop
      vertex -10 50 0
      vertex -60 0 0
      vertex -60 50 0
    endloop
  endfacet
  facet normal -0.707105 0.707109 0
    outer loop
      vertex -23.9376 0 2.4
      vertex -15.1 8.83755 5.9
      vertex -15.1 8.83755 2.4
    endloop
  endfacet
  facet normal -0.707105 0.707109 0
    outer loop
      vertex -15.1 8.83755 5.9
      vertex -23.9376 0 2.4
      vertex -23.9376 0 5.9
    endloop
  endfacet
  facet normal 0.707108 -0.707106 0
    outer loop
      vertex -18.9878 0 5.9
      vertex -15.1 3.88781 2.4
      vertex -15.1 3.88781 5.9
    endloop
  endfacet
  facet normal 0.707108 -0.707106 0
    outer loop
      vertex -15.1 3.88781 2.4
      vertex -18.9878 0 5.9
      vertex -18.9878 0 2.4
    endloop
  endfacet
  facet normal -0.707107 0.707107 0
    outer loop
      vertex -33.837 0 2.4
      vertex -15.1 18.737 5.9
      vertex -15.1 18.737 2.4
    endloop
  endfacet
  facet normal -0.707107 0.707107 0
    outer loop
      vertex -15.1 18.737 5.9
      vertex -33.837 0 2.4
      vertex -33.837 0 5.9
    endloop
  endfacet
  facet normal 0.707107 -0.707107 0
    outer loop
      vertex -28.8873 0 2.4
      vertex -15.1 13.7873 5.9
      vertex -28.8873 0 5.9
    endloop
  endfacet
  facet normal 0.707107 -0.707107 0
    outer loop
      vertex -15.1 13.7873 5.9
      vertex -28.8873 0 2.4
      vertex -15.1 13.7873 2.4
    endloop
  endfacet
  facet normal -0.707107 0.707107 0
    outer loop
      vertex -43.7365 0 2.4
      vertex -15.1 28.6365 5.9
      vertex -15.1 28.6365 2.4
    endloop
  endfacet
  facet normal -0.707107 0.707107 0
    outer loop
      vertex -15.1 28.6365 5.9
      vertex -43.7365 0 2.4
      vertex -43.7365 0 5.9
    endloop
  endfacet
  facet normal 0.707107 -0.707107 0
    outer loop
      vertex -38.7868 0 5.9
      vertex -15.1 23.6868 2.4
      vertex -15.1 23.6868 5.9
    endloop
  endfacet
  facet normal 0.707107 -0.707107 0
    outer loop
      vertex -15.1 23.6868 2.4
      vertex -38.7868 0 5.9
      vertex -38.7868 0 2.4
    endloop
  endfacet
  facet normal -0.707107 0.707107 0
    outer loop
      vertex -15.1 38.536 2.4
      vertex -53.636 0 5.9
      vertex -15.1 38.536 5.9
    endloop
  endfacet
  facet normal -0.707107 0.707107 0
    outer loop
      vertex -53.636 0 5.9
      vertex -15.1 38.536 2.4
      vertex -53.636 0 2.4
    endloop
  endfacet
  facet normal 0.707107 -0.707107 0
    outer loop
      vertex -48.6863 0 5.9
      vertex -15.1 33.5863 2.4
      vertex -15.1 33.5863 5.9
    endloop
  endfacet
  facet normal 0.707107 -0.707107 0
    outer loop
      vertex -15.1 33.5863 2.4
      vertex -48.6863 0 5.9
      vertex -48.6863 0 2.4
    endloop
  endfacet
  facet normal -0.707107 0.707107 0
    outer loop
      vertex -54.9 8.63553 2.4
      vertex -15.1 48.4355 5.9
      vertex -15.1 48.4355 2.4
    endloop
  endfacet
  facet normal -0.707107 0.707107 0
    outer loop
      vertex -15.1 48.4355 5.9
      vertex -54.9 8.63553 2.4
      vertex -54.9 8.63553 5.9
    endloop
  endfacet
  facet normal 0.707107 -0.707107 0
    outer loop
      vertex -54.9 3.68579 2.4
      vertex -15.1 43.4858 5.9
      vertex -54.9 3.68579 5.9
    endloop
  endfacet
  facet normal 0.707107 -0.707107 0
    outer loop
      vertex -15.1 43.4858 5.9
      vertex -54.9 3.68579 2.4
      vertex -15.1 43.4858 2.4
    endloop
  endfacet
  facet normal -0.707107 0.707107 0
    outer loop
      vertex -23.435 50 2.4
      vertex -54.9 18.535 5.9
      vertex -23.435 50 5.9
    endloop
  endfacet
  facet normal -0.707107 0.707107 0
    outer loop
      vertex -54.9 18.535 5.9
      vertex -23.435 50 2.4
      vertex -54.9 18.535 2.4
    endloop
  endfacet
  facet normal 0.707107 -0.707107 0
    outer loop
      vertex -54.9 13.5853 5.9
      vertex -18.4853 50 2.4
      vertex -18.4853 50 5.9
    endloop
  endfacet
  facet normal 0.707107 -0.707107 0
    outer loop
      vertex -18.4853 50 2.4
      vertex -54.9 13.5853 5.9
      vertex -54.9 13.5853 2.4
    endloop
  endfacet
  facet normal -0.707107 0.707107 0
    outer loop
      vertex -33.3345 50 2.4
      vertex -54.9 28.4345 5.9
      vertex -33.3345 50 5.9
    endloop
  endfacet
  facet normal -0.707107 0.707107 0
    outer loop
      vertex -54.9 28.4345 5.9
      vertex -33.3345 50 2.4
      vertex -54.9 28.4345 2.4
    endloop
  endfacet
  facet normal 0.707107 -0.707107 0
    outer loop
      vertex -54.9 23.4848 5.9
      vertex -28.3848 50 2.4
      vertex -28.3848 50 5.9
    endloop
  endfacet
  facet normal 0.707107 -0.707107 0
    outer loop
      vertex -28.3848 50 2.4
      vertex -54.9 23.4848 5.9
      vertex -54.9 23.4848 2.4
    endloop
  endfacet
  facet normal -0.707107 0.707107 0
    outer loop
      vertex -54.9 38.334 2.4
      vertex -43.234 50 5.9
      vertex -43.234 50 2.4
    endloop
  endfacet
  facet normal -0.707107 0.707107 0
    outer loop
      vertex -43.234 50 5.9
      vertex -54.9 38.334 2.4
      vertex -54.9 38.334 5.9
    endloop
  endfacet
  facet normal 0.707107 -0.707107 0
    outer loop
      vertex -54.9 33.3843 5.9
      vertex -38.2843 50 2.4
      vertex -38.2843 50 5.9
    endloop
  endfacet
  facet normal 0.707107 -0.707107 0
    outer loop
      vertex -38.2843 50 2.4
      vertex -54.9 33.3843 5.9
      vertex -54.9 33.3843 2.4
    endloop
  endfacet
  facet normal -0.707107 0.707107 0
    outer loop
      vertex -54.9 48.2335 2.4
      vertex -53.1335 50 5.9
      vertex -53.1335 50 2.4
    endloop
  endfacet
  facet normal -0.707107 0.707107 0
    outer loop
      vertex -53.1335 50 5.9
      vertex -54.9 48.2335 2.4
      vertex -54.9 48.2335 5.9
    endloop
  endfacet
  facet normal 0.707107 -0.707107 0
    outer loop
      vertex -54.9 43.2838 5.9
      vertex -48.1838 50 2.4
      vertex -48.1838 50 5.9
    endloop
  endfacet
  facet normal 0.707107 -0.707107 0
    outer loop
      vertex -48.1838 50 2.4
      vertex -54.9 43.2838 5.9
      vertex -54.9 43.2838 2.4
    endloop
  endfacet
  facet normal 0 1 -0
    outer loop
      vertex -10 50 0
      vertex -18.4853 50 2.4
      vertex -10 50 2.4
    endloop
  endfacet
  facet normal 0 1 0
    outer loop
      vertex -18.4853 50 2.4
      vertex -10 50 0
      vertex -23.435 50 2.4
    endloop
  endfacet
  facet normal 0 1 0
    outer loop
      vertex -23.435 50 2.4
      vertex -10 50 0
      vertex -28.3848 50 2.4
    endloop
  endfacet
  facet normal 0 1 0
    outer loop
      vertex -28.3848 50 2.4
      vertex -10 50 0
      vertex -33.3345 50 2.4
    endloop
  endfacet
  facet normal 0 1 0
    outer loop
      vertex -33.3345 50 2.4
      vertex -10 50 0
      vertex -38.2843 50 2.4
    endloop
  endfacet
  facet normal 0 1 0
    outer loop
      vertex -60 50 0
      vertex -38.2843 50 2.4
      vertex -10 50 0
    endloop
  endfacet
  facet normal 0 1 0
    outer loop
      vertex -38.2843 50 2.4
      vertex -60 50 0
      vertex -43.234 50 2.4
    endloop
  endfacet
  facet normal 0 1 0
    outer loop
      vertex -43.234 50 2.4
      vertex -60 50 0
      vertex -48.1838 50 2.4
    endloop
  endfacet
  facet normal 0 1 0
    outer loop
      vertex -48.1838 50 2.4
      vertex -60 50 0
      vertex -53.1335 50 2.4
    endloop
  endfacet
  facet normal 0 1 0
    outer loop
      vertex -53.1335 50 2.4
      vertex -60 50 0
      vertex -60 50 2.4
    endloop
  endfacet
  facet normal 0 1 -0
    outer loop
      vertex -18.4853 50 2.4
      vertex -23.435 50 5.9
      vertex -18.4853 50 5.9
    endloop
  endfacet
  facet normal 0 1 0
    outer loop
      vertex -23.435 50 5.9
      vertex -18.4853 50 2.4
      vertex -23.435 50 2.4
    endloop
  endfacet
  facet normal 0 1 -0
    outer loop
      vertex -28.3848 50 2.4
      vertex -33.3345 50 5.9
      vertex -28.3848 50 5.9
    endloop
  endfacet
  facet normal 0 1 0
    outer loop
      vertex -33.3345 50 5.9
      vertex -28.3848 50 2.4
      vertex -33.3345 50 2.4
    endloop
  endfacet
  facet normal 0 1 -0
    outer loop
      vertex -38.2843 50 2.4
      vertex -43.234 50 5.9
      vertex -38.2843 50 5.9
    endloop
  endfacet
  facet normal 0 1 0
    outer loop
      vertex -43.234 50 5.9
      vertex -38.2843 50 2.4
      vertex -43.234 50 2.4
    endloop
  endfacet
  facet normal 0 1 -0
    outer loop
      vertex -48.1838 50 2.4
      vertex -53.1335 50 5.9
      vertex -48.1838 50 5.9
    endloop
  endfacet
  facet normal 0 1 0
    outer loop
      vertex -53.1335 50 5.9
      vertex -48.1838 50 2.4
      vertex -53.1335 50 2.4
    endloop
  endfacet
  facet normal 0 -1 0
    outer loop
      vertex -60 0 0
      vertex -53.636 0 2.4
      vertex -60 0 2.4
    endloop
  endfacet
  facet normal 0 -1 -0
    outer loop
      vertex -53.636 0 2.4
      vertex -60 0 0
      vertex -48.6863 0 2.4
    endloop
  endfacet
  facet normal 0 -1 -0
    outer loop
      vertex -48.6863 0 2.4
      vertex -60 0 0
      vertex -43.7365 0 2.4
    endloop
  endfacet
  facet normal 0 -1 -0
    outer loop
      vertex -43.7365 0 2.4
      vertex -60 0 0
      vertex -38.7868 0 2.4
    endloop
  endfacet
  facet normal 0 -1 -0
    outer loop
      vertex -38.7868 0 2.4
      vertex -60 0 0
      vertex -33.837 0 2.4
    endloop
  endfacet
  facet normal 0 -1 0
    outer loop
      vertex -10 0 0
      vertex -33.837 0 2.4
      vertex -60 0 0
    endloop
  endfacet
  facet normal 0 -1 0
    outer loop
      vertex -33.837 0 2.4
      vertex -10 0 0
      vertex -28.8873 0 2.4
    endloop
  endfacet
  facet normal 0 -1 0
    outer loop
      vertex -28.8873 0 2.4
      vertex -10 0 0
      vertex -23.9376 0 2.4
    endloop
  endfacet
  facet normal 0 -1 0
    outer loop
      vertex -23.9376 0 2.4
      vertex -10 0 0
      vertex -18.9878 0 2.4
    endloop
  endfacet
  facet normal 0 -1 0
    outer loop
      vertex -18.9878 0 2.4
      vertex -10 0 0
      vertex -10 0 2.4
    endloop
  endfacet
  facet normal 0 -1 0
    outer loop
      vertex -53.636 0 2.4
      vertex -48.6863 0 5.9
      vertex -53.636 0 5.9
    endloop
  endfacet
  facet normal 0 -1 -0
    outer loop
      vertex -48.6863 0 5.9
      vertex -53.636 0 2.4
      vertex -48.6863 0 2.4
    endloop
  endfacet
  facet normal 0 -1 0
    outer loop
      vertex -43.7365 0 2.4
      vertex -38.7868 0 5.9
      vertex -43.7365 0 5.9
    endloop
  endfacet
  facet normal 0 -1 -0
    outer loop
      vertex -38.7868 0 5.9
      vertex -43.7365 0 2.4
      vertex -38.7868 0 2.4
    endloop
  endfacet
  facet normal 0 -1 0
    outer loop
      vertex -33.837 0 2.4
      vertex -28.8873 0 5.9
      vertex -33.837 0 5.9
    endloop
  endfacet
  facet normal 0 -1 -0
    outer loop
      vertex -28.8873 0 5.9
      vertex -33.837 0 2.4
      vertex -28.8873 0 2.4
    endloop
  endfacet
  facet normal 0 -1 0
    outer loop
      vertex -23.9376 0 2.4
      vertex -18.9878 0 5.9
      vertex -23.9376 0 5.9
    endloop
  endfacet
  facet normal 0 -1 -0
    outer loop
      vertex -18.9878 0 5.9
      vertex -23.9376 0 2.4
      vertex -18.9878 0 2.4
    endloop
  endfacet
  facet normal -1 0 0
    outer loop
      vertex -54.9 43.2838 2.4
      vertex -54.9 48.2335 5.9
      vertex -54.9 48.2335 2.4
    endloop
  endfacet
  facet normal -1 -0 0
    outer loop
      vertex -54.9 48.2335 5.9
      vertex -54.9 43.2838 2.4
      vertex -54.9 43.2838 5.9
    endloop
  endfacet
  facet normal -1 0 0
    outer loop
      vertex -54.9 33.3843 2.4
      vertex -54.9 38.334 5.9
      vertex -54.9 38.334 2.4
    endloop
  endfacet
  facet normal -1 -0 0
    outer loop
      vertex -54.9 38.334 5.9
      vertex -54.9 33.3843 2.4
      vertex -54.9 33.3843 5.9
    endloop
  endfacet
  facet normal -1 0 0
    outer loop
      vertex -54.9 23.4848 2.4
      vertex -54.9 28.4345 5.9
      vertex -54.9 28.4345 2.4
    endloop
  endfacet
  facet normal -1 -0 0
    outer loop
      vertex -54.9 28.4345 5.9
      vertex -54.9 23.4848 2.4
      vertex -54.9 23.4848 5.9
    endloop
  endfacet
  facet normal -1 0 0
    outer loop
      vertex -54.9 13.5853 2.4
      vertex -54.9 18.535 5.9
      vertex -54.9 18.535 2.4
    endloop
  endfacet
  facet normal -1 -0 0
    outer loop
      vertex -54.9 18.535 5.9
      vertex -54.9 13.5853 2.4
      vertex -54.9 13.5853 5.9
    endloop
  endfacet
  facet normal -1 0 0
    outer loop
      vertex -54.9 3.68579 2.4
      vertex -54.9 8.63553 5.9
      vertex -54.9 8.63553 2.4
    endloop
  endfacet
  facet normal -1 -0 0
    outer loop
      vertex -54.9 8.63553 5.9
      vertex -54.9 3.68579 2.4
      vertex -54.9 3.68579 5.9
    endloop
  endfacet
  facet normal 1 -0 0
    outer loop
      vertex -15.1 43.4858 5.9
      vertex -15.1 48.4355 2.4
      vertex -15.1 48.4355 5.9
    endloop
  endfacet
  facet normal 1 0 0
    outer loop
      vertex -15.1 48.4355 2.4
      vertex -15.1 43.4858 5.9
      vertex -15.1 43.4858 2.4
    endloop
  endfacet
  facet normal 1 -0 0
    outer loop
      vertex -15.1 33.5863 5.9
      vertex -15.1 38.536 2.4
      vertex -15.1 38.536 5.9
    endloop
  endfacet
  facet normal 1 0 0
    outer loop
      vertex -15.1 38.536 2.4
      vertex -15.1 33.5863 5.9
      vertex -15.1 33.5863 2.4
    endloop
  endfacet
  facet normal 1 -0 0
    outer loop
      vertex -15.1 23.6868 5.9
      vertex -15.1 28.6365 2.4
      vertex -15.1 28.6365 5.9
    endloop
  endfacet
  facet normal 1 0 0
    outer loop
      vertex -15.1 28.6365 2.4
      vertex -15.1 23.6868 5.9
      vertex -15.1 23.6868 2.4
    endloop
  endfacet
  facet normal 1 -0 0
    outer loop
      vertex -15.1 13.7873 5.9
      vertex -15.1 18.737 2.4
      vertex -15.1 18.737 5.9
    endloop
  endfacet
  facet normal 1 0 0
    outer loop
      vertex -15.1 18.737 2.4
      vertex -15.1 13.7873 5.9
      vertex -15.1 13.7873 2.4
    endloop
  endfacet
  facet normal 1 -0 0
    outer loop
      vertex -15.1 3.88781 5.9
      vertex -15.1 8.83755 2.4
      vertex -15.1 8.83755 5.9
    endloop
  endfacet
  facet normal 1 0 0
    outer loop
      vertex -15.1 8.83755 2.4
      vertex -15.1 3.88781 5.9
      vertex -15.1 3.88781 2.4
    endloop
  endfacet
  facet normal 1 -0 0
    outer loop
      vertex -10 0 2.4
      vertex -10 50 0
      vertex -10 50 2.4
    endloop
  endfacet
  facet normal 1 0 0
    outer loop
      vertex -10 50 0
      vertex -10 0 2.4
      vertex -10 0 0
    endloop
  endfacet
  facet normal 0 0 1
    outer loop
      vertex -60 50 2.4
      vertex -54.9 43.2838 2.4
      vertex -54.9 48.2335 2.4
    endloop
  endfacet
  facet normal 0 0 1
    outer loop
      vertex -54.9 43.2838 2.4
      vertex -60 50 2.4
      vertex -54.9 38.334 2.4
    endloop
  endfacet
  facet normal 0 0 1
    outer loop
      vertex -54.9 38.334 2.4
      vertex -60 50 2.4
      vertex -54.9 33.3843 2.4
    endloop
  endfacet
  facet normal 0 0 1
    outer loop
      vertex -54.9 33.3843 2.4
      vertex -60 50 2.4
      vertex -54.9 28.4345 2.4
    endloop
  endfacet
  facet normal 0 0 1
    outer loop
      vertex -54.9 28.4345 2.4
      vertex -60 50 2.4
      vertex -54.9 23.4848 2.4
    endloop
  endfacet
  facet normal 0 0 1
    outer loop
      vertex -60 0 2.4
      vertex -54.9 23.4848 2.4
      vertex -60 50 2.4
    endloop
  endfacet
  facet normal 0 0 1
    outer loop
      vertex -54.9 23.4848 2.4
      vertex -60 0 2.4
      vertex -54.9 18.535 2.4
    endloop
  endfacet
  facet normal 0 0 1
    outer loop
      vertex -54.9 18.535 2.4
      vertex -60 0 2.4
      vertex -54.9 13.5853 2.4
    endloop
  endfacet
  facet normal 0 0 1
    outer loop
      vertex -54.9 13.5853 2.4
      vertex -60 0 2.4
      vertex -54.9 8.63553 2.4
    endloop
  endfacet
  facet normal -0 0 1
    outer loop
      vertex -60 50 2.4
      vertex -54.9 48.2335 2.4
      vertex -53.1335 50 2.4
    endloop
  endfacet
  facet normal 0 0 1
    outer loop
      vertex -54.9 43.2838 2.4
      vertex -43.234 50 2.4
      vertex -48.1838 50 2.4
    endloop
  endfacet
  facet normal 0 0 1
    outer loop
      vertex -43.234 50 2.4
      vertex -54.9 43.2838 2.4
      vertex -54.9 38.334 2.4
    endloop
  endfacet
  facet normal 0 0 1
    outer loop
      vertex -54.9 33.3843 2.4
      vertex -33.3345 50 2.4
      vertex -38.2843 50 2.4
    endloop
  endfacet
  facet normal 0 0 1
    outer loop
      vertex -33.3345 50 2.4
      vertex -54.9 33.3843 2.4
      vertex -54.9 28.4345 2.4
    endloop
  endfacet
  facet normal 0 0 1
    outer loop
      vertex -54.9 23.4848 2.4
      vertex -23.435 50 2.4
      vertex -28.3848 50 2.4
    endloop
  endfacet
  facet normal 0 0 1
    outer loop
      vertex -23.435 50 2.4
      vertex -54.9 23.4848 2.4
      vertex -54.9 18.535 2.4
    endloop
  endfacet
  facet normal 0 0 1
    outer loop
      vertex -15.1 13.7873 2.4
      vertex -23.9376 0 2.4
      vertex -15.1 8.83755 2.4
    endloop
  endfacet
  facet normal 0 -0 1
    outer loop
      vertex -23.9376 0 2.4
      vertex -15.1 13.7873 2.4
      vertex -28.8873 0 2.4
    endloop
  endfacet
  facet normal 0 0 1
    outer loop
      vertex -15.1 23.6868 2.4
      vertex -33.837 0 2.4
      vertex -15.1 18.737 2.4
    endloop
  endfacet
  facet normal 0 -0 1
    outer loop
      vertex -33.837 0 2.4
      vertex -15.1 23.6868 2.4
      vertex -38.7868 0 2.4
    endloop
  endfacet
  facet normal 0 0 1
    outer loop
      vertex -15.1 33.5863 2.4
      vertex -43.7365 0 2.4
      vertex -15.1 28.6365 2.4
    endloop
  endfacet
  facet normal 0 -0 1
    outer loop
      vertex -43.7365 0 2.4
      vertex -15.1 33.5863 2.4
      vertex -48.6863 0 2.4
    endloop
  endfacet
  facet normal 0 0 1
    outer loop
      vertex -54.9 3.68579 2.4
      vertex -15.1 38.536 2.4
      vertex -15.1 43.4858 2.4
    endloop
  endfacet
  facet normal 0 0 1
    outer loop
      vertex -15.1 38.536 2.4
      vertex -54.9 3.68579 2.4
      vertex -53.636 0 2.4
    endloop
  endfacet
  facet normal 0 0 1
    outer loop
      vertex -54.9 3.68579 2.4
      vertex -60 0 2.4
      vertex -53.636 0 2.4
    endloop
  endfacet
  facet normal 0 0 1
    outer loop
      vertex -54.9 8.63553 2.4
      vertex -60 0 2.4
      vertex -54.9 3.68579 2.4
    endloop
  endfacet
  facet normal 0 0 1
    outer loop
      vertex -15.1 43.4858 2.4
      vertex -10 50 2.4
      vertex -15.1 48.4355 2.4
    endloop
  endfacet
  facet normal -0 0 1
    outer loop
      vertex -18.4853 50 2.4
      vertex -15.1 48.4355 2.4
      vertex -10 50 2.4
    endloop
  endfacet
  facet normal 0 0 1
    outer loop
      vertex -54.9 13.5853 2.4
      vertex -15.1 48.4355 2.4
      vertex -18.4853 50 2.4
    endloop
  endfacet
  facet normal 0 0 1
    outer loop
      vertex -15.1 48.4355 2.4
      vertex -54.9 13.5853 2.4
      vertex -54.9 8.63553 2.4
    endloop
  endfacet
  facet normal 0 0 1
    outer loop
      vertex -15.1 38.536 2.4
      vertex -10 50 2.4
      vertex -15.1 43.4858 2.4
    endloop
  endfacet
  facet normal 0 0 1
    outer loop
      vertex -15.1 33.5863 2.4
      vertex -10 50 2.4
      vertex -15.1 38.536 2.4
    endloop
  endfacet
  facet normal 0 0 1
    outer loop
      vertex -15.1 28.6365 2.4
      vertex -10 50 2.4
      vertex -15.1 33.5863 2.4
    endloop
  endfacet
  facet normal 0 0 1
    outer loop
      vertex -15.1 23.6868 2.4
      vertex -10 50 2.4
      vertex -15.1 28.6365 2.4
    endloop
  endfacet
  facet normal 0 0 1
    outer loop
      vertex -10 50 2.4
      vertex -15.1 23.6868 2.4
      vertex -10 0 2.4
    endloop
  endfacet
  facet normal -0 0 1
    outer loop
      vertex -15.1 18.737 2.4
      vertex -10 0 2.4
      vertex -15.1 23.6868 2.4
    endloop
  endfacet
  facet normal -0 0 1
    outer loop
      vertex -15.1 13.7873 2.4
      vertex -10 0 2.4
      vertex -15.1 18.737 2.4
    endloop
  endfacet
  facet normal -0 0 1
    outer loop
      vertex -15.1 8.83755 2.4
      vertex -10 0 2.4
      vertex -15.1 13.7873 2.4
    endloop
  endfacet
  facet normal -0 0 1
    outer loop
      vertex -15.1 3.88781 2.4
      vertex -10 0 2.4
      vertex -15.1 8.83755 2.4
    endloop
  endfacet
  facet normal 0 0 1
    outer loop
      vertex -10 0 2.4
      vertex -15.1 3.88781 2.4
      vertex -18.9878 0 2.4
    endloop
  endfacet
  facet normal -1 0 0
    outer loop
      vertex -60 0 0
      vertex -60 50 2.4
      vertex -60 50 0
    endloop
  endfacet
  facet normal -1 -0 0
    outer loop
      vertex -60 50 2.4
      vertex -60 0 0
      vertex -60 0 2.4
    endloop
  endfacet
  facet normal 1 -0 0
    outer loop
      vertex 50 0 2.4
      vertex 50 50 0
      vertex 50 50 2.4
    endloop
  endfacet
  facet normal 1 0 0
    outer loop
      vertex 50 50 0
      vertex 50 0 2.4
      vertex 50 0 0
    endloop
  endfacet
  facet normal -0 0 1
    outer loop
      vertex 5.1 10.5 2.4
      vertex 45 7 2.4
      vertex 45 10.5 2.4
    endloop
  endfacet
  facet normal 0 0 1
    outer loop
      vertex 45 7 2.4
      vertex 5.1 10.5 2.4
      vertex 5.1 7 2.4
    endloop
  endfacet
  facet normal -0 0 1
    outer loop
      vertex 5.1 17.5 2.4
      vertex 45 14 2.4
      vertex 45 17.5 2.4
    endloop
  endfacet
  facet normal 0 0 1
    outer loop
      vertex 45 14 2.4
      vertex 5.1 17.5 2.4
      vertex 5.1 14 2.4
    endloop
  endfacet
  facet normal -0 0 1
    outer loop
      vertex 5.1 24.5 2.4
      vertex 45 21 2.4
      vertex 45 24.5 2.4
    endloop
  endfacet
  facet normal 0 0 1
    outer loop
      vertex 45 21 2.4
      vertex 5.1 24.5 2.4
      vertex 5.1 21 2.4
    endloop
  endfacet
  facet normal -0 0 1
    outer loop
      vertex 5.1 31.5 2.4
      vertex 45 28 2.4
      vertex 45 31.5 2.4
    endloop
  endfacet
  facet normal 0 0 1
    outer loop
      vertex 45 28 2.4
      vertex 5.1 31.5 2.4
      vertex 5.1 28 2.4
    endloop
  endfacet
  facet normal -0 0 1
    outer loop
      vertex 5.1 38.5 2.4
      vertex 45 35 2.4
      vertex 45 38.5 2.4
    endloop
  endfacet
  facet normal 0 0 1
    outer loop
      vertex 45 35 2.4
      vertex 5.1 38.5 2.4
      vertex 5.1 35 2.4
    endloop
  endfacet
  facet normal -0 0 1
    outer loop
      vertex 5.1 45.5 2.4
      vertex 45 42 2.4
      vertex 45 45.5 2.4
    endloop
  endfacet
  facet normal 0 0 1
    outer loop
      vertex 45 42 2.4
      vertex 5.1 45.5 2.4
      vertex 5.1 42 2.4
    endloop
  endfacet
  facet normal 0 0 1
    outer loop
      vertex 45 45.5 2.4
      vertex 50 50 2.4
      vertex 45 49 2.4
    endloop
  endfacet
  facet normal 0 0 1
    outer loop
      vertex 50 50 2.4
      vertex 5.1 49 2.4
      vertex 45 49 2.4
    endloop
  endfacet
  facet normal 0 0 1
    outer loop
      vertex 0 50 2.4
      vertex 5.1 45.5 2.4
      vertex 5.1 49 2.4
    endloop
  endfacet
  facet normal 0 0 1
    outer loop
      vertex 5.1 45.5 2.4
      vertex 0 50 2.4
      vertex 5.1 42 2.4
    endloop
  endfacet
  facet normal 0 0 1
    outer loop
      vertex 5.1 42 2.4
      vertex 0 50 2.4
      vertex 5.1 38.5 2.4
    endloop
  endfacet
  facet normal 0 0 1
    outer loop
      vertex 5.1 38.5 2.4
      vertex 0 50 2.4
      vertex 5.1 35 2.4
    endloop
  endfacet
  facet normal 0 0 1
    outer loop
      vertex 5.1 35 2.4
      vertex 0 50 2.4
      vertex 5.1 31.5 2.4
    endloop
  endfacet
  facet normal 0 0 1
    outer loop
      vertex 5.1 31.5 2.4
      vertex 0 50 2.4
      vertex 5.1 28 2.4
    endloop
  endfacet
  facet normal 0 0 1
    outer loop
      vertex 5.1 28 2.4
      vertex 0 50 2.4
      vertex 5.1 24.5 2.4
    endloop
  endfacet
  facet normal 0 0 1
    outer loop
      vertex 0 0 2.4
      vertex 5.1 24.5 2.4
      vertex 0 50 2.4
    endloop
  endfacet
  facet normal 0 0 1
    outer loop
      vertex 5.1 24.5 2.4
      vertex 0 0 2.4
      vertex 5.1 21 2.4
    endloop
  endfacet
  facet normal 0 0 1
    outer loop
      vertex 5.1 21 2.4
      vertex 0 0 2.4
      vertex 5.1 17.5 2.4
    endloop
  endfacet
  facet normal 0 0 1
    outer loop
      vertex 5.1 17.5 2.4
      vertex 0 0 2.4
      vertex 5.1 14 2.4
    endloop
  endfacet
  facet normal 0 0 1
    outer loop
      vertex 5.1 14 2.4
      vertex 0 0 2.4
      vertex 5.1 10.5 2.4
    endloop
  endfacet
  facet normal 0 0 1
    outer loop
      vertex 5.1 10.5 2.4
      vertex 0 0 2.4
      vertex 5.1 7 2.4
    endloop
  endfacet
  facet normal -0 0 1
    outer loop
      vertex 0 50 2.4
      vertex 5.1 49 2.4
      vertex 50 50 2.4
    endloop
  endfacet
  facet normal 0 0 1
    outer loop
      vertex 45 42 2.4
      vertex 50 50 2.4
      vertex 45 45.5 2.4
    endloop
  endfacet
  facet normal 0 0 1
    outer loop
      vertex 45 38.5 2.4
      vertex 50 50 2.4
      vertex 45 42 2.4
    endloop
  endfacet
  facet normal 0 0 1
    outer loop
      vertex 45 35 2.4
      vertex 50 50 2.4
      vertex 45 38.5 2.4
    endloop
  endfacet
  facet normal 0 0 1
    outer loop
      vertex 45 31.5 2.4
      vertex 50 50 2.4
      vertex 45 35 2.4
    endloop
  endfacet
  facet normal 0 0 1
    outer loop
      vertex 45 28 2.4
      vertex 50 50 2.4
      vertex 45 31.5 2.4
    endloop
  endfacet
  facet normal 0 0 1
    outer loop
      vertex 45 24.5 2.4
      vertex 50 50 2.4
      vertex 45 28 2.4
    endloop
  endfacet
  facet normal 0 0 1
    outer loop
      vertex 50 50 2.4
      vertex 45 24.5 2.4
      vertex 50 0 2.4
    endloop
  endfacet
  facet normal -0 0 1
    outer loop
      vertex 45 21 2.4
      vertex 50 0 2.4
      vertex 45 24.5 2.4
    endloop
  endfacet
  facet normal -0 0 1
    outer loop
      vertex 45 17.5 2.4
      vertex 50 0 2.4
      vertex 45 21 2.4
    endloop
  endfacet
  facet normal -0 0 1
    outer loop
      vertex 45 14 2.4
      vertex 50 0 2.4
      vertex 45 17.5 2.4
    endloop
  endfacet
  facet normal -0 0 1
    outer loop
      vertex 45 10.5 2.4
      vertex 50 0 2.4
      vertex 45 14 2.4
    endloop
  endfacet
  facet normal -0 0 1
    outer loop
      vertex 45 7 2.4
      vertex 50 0 2.4
      vertex 45 10.5 2.4
    endloop
  endfacet
  facet normal -0 0 1
    outer loop
      vertex 45 3.5 2.4
      vertex 50 0 2.4
      vertex 45 7 2.4
    endloop
  endfacet
  facet normal -0 0 1
    outer loop
      vertex 5.1 3.5 2.4
      vertex 50 0 2.4
      vertex 45 3.5 2.4
    endloop
  endfacet
  facet normal 0 0 1
    outer loop
      vertex 5.1 3.5 2.4
      vertex 0 0 2.4
      vertex 50 0 2.4
    endloop
  endfacet
  facet normal 0 0 1
    outer loop
      vertex 5.1 7 2.4
      vertex 0 0 2.4
      vertex 5.1 3.5 2.4
    endloop
  endfacet
  facet normal -1 0 0
    outer loop
      vertex 0 0 0
      vertex 0 50 2.4
      vertex 0 50 0
    endloop
  endfacet
  facet normal -1 -0 0
    outer loop
      vertex 0 50 2.4
      vertex 0 0 0
      vertex 0 0 2.4
    endloop
  endfacet
  facet normal 0 1 -0
    outer loop
      vertex 50 50 0
      vertex 0 50 2.4
      vertex 50 50 2.4
    endloop
  endfacet
  facet normal 0 1 0
    outer loop
      vertex 0 50 2.4
      vertex 50 50 0
      vertex 0 50 0
    endloop
  endfacet
  facet normal 0 -1 0
    outer loop
      vertex 0 0 0
      vertex 50 0 2.4
      vertex 0 0 2.4
    endloop
  endfacet
  facet normal 0 -1 -0
    outer loop
      vertex 50 0 2.4
      vertex 0 0 0
      vertex 50 0 0
    endloop
  endfacet
endsolid OpenSCAD_Model
